# xmcd CD database file
#
# Track frame offsets:
#	150
#	21427
#	46492
#	62238
#	81754
#	102785
#	120802
#	137645
#	164797
#	183050
#	202506
#	225132
#	249428
#	269848
#	287113
#
# Disc length: 4241 seconds
#
# Revision: 0
# Processed by: cddbd v1.5.2PL0 Copyright (c) Steve Scherf et al.
# Submitted via: CDex 1.51
#
DISCID=c6108f0f
DTITLE=Various Artist - Chill Out In Paris Vol.7
DYEAR=2008
DGENRE=New Age
TTITLE0=Jasmon - Sanpo Suru
TTITLE1=Huong Thanh - Moon Boat
TTITLE2=Celine Rudolph - Victime De La Mode
TTITLE3=Ominostanco - Brown Leaves
TTITLE4=Duke Bojadziev feat. Vlada Tomova - Kalimanku
TTITLE5=Umberto Echo - Mindif
TTITLE6=Clelia Felix - Don't Walk Away
TTITLE7=Dub Guerrilla - Gettin' Into It
TTITLE8=Gabrielle - Bossa Barka
TTITLE9=Nguyen Lè and Dhafer Youssef - Byzance
TTITLE10=Hana - Ayume
TTITLE11=Ben Omar - Paranà
TTITLE12=Alacran - Ait Benhaddou Chill
TTITLE13=Yukiko Liri  - Time To Really Love Me
TTITLE14=Kira Neris - Kira Neris Theme
EXTD=YEAR: 2008
EXTT0=
EXTT1=
EXTT2=
EXTT3=
EXTT4=
EXTT5=
EXTT6=
EXTT7=
EXTT8=
EXTT9=
EXTT10=
EXTT11=
EXTT12=
EXTT13=
EXTT14=
PLAYORDER=
